<svg width="1200" height="177" xmlns="http://www.w3.org/2000/svg" version="1.1">
<line x1="320" y1="49" x2="330" y2="49" stroke="rgb(70,30,0)" stroke-width="1" />
<line x1="330" y1="49" x2="330" y2="81" stroke="rgb(70,30,0)" stroke-width="1" />
<line x1="330" y1="81" x2="382" y2="49" stroke="rgb(70,30,0)" stroke-width="1" />
<line x1="382" y1="49" x2="330" y2="18" stroke="rgb(70,30,0)" stroke-width="1" />
<line x1="330" y1="18" x2="330" y2="49" stroke="rgb(70,30,0)" stroke-width="1" />
<line x1="398" y1="49" x2="403" y2="49" stroke="rgb(70,30,0)" stroke-width="1" />
<circle cx="390" cy="49" r="8" stroke="rgb(70,30,0)" fill="white" />
<line x1="175" y1="70" x2="195" y2="70" stroke="rgb(70,30,0)" stroke-width="1" />
<line x1="195" y1="70" x2="195" y2="81" stroke="rgb(70,30,0)" stroke-width="1" />
<line x1="195" y1="81" x2="247" y2="81" stroke="rgb(70,30,0)" stroke-width="1" />
<line x1="175" y1="29" x2="195" y2="29" stroke="rgb(70,30,0)" stroke-width="1" />
<line x1="195" y1="29" x2="195" y2="18" stroke="rgb(70,30,0)" stroke-width="1" />
<line x1="195" y1="18" x2="247" y2="18" stroke="rgb(70,30,0)" stroke-width="1" />
<line x1="195" y1="70" x2="195" y2="29" stroke="rgb(70,30,0)" stroke-width="1" />
<line x1="295" y1="49" x2="299" y2="49" stroke="rgb(70,30,0)" stroke-width="1" />
<line x1="247" y1="81" x2="258" y2="76" stroke="rgb(70,30,0)" stroke-width="1" />
<line x1="258" y1="76" x2="274" y2="68" stroke="rgb(70,30,0)" stroke-width="1" />
<line x1="274" y1="68" x2="278" y2="49" stroke="rgb(70,30,0)" stroke-width="1" />
<line x1="278" y1="49" x2="274" y2="33" stroke="rgb(70,30,0)" stroke-width="1" />
<line x1="274" y1="33" x2="258" y2="23" stroke="rgb(70,30,0)" stroke-width="1" />
<line x1="258" y1="23" x2="247" y2="18" stroke="rgb(70,30,0)" stroke-width="1" />
<circle cx="287" cy="49" r="8" stroke="rgb(70,30,0)" fill="white" />
<circle cx="212" cy="31" r="6" fill="rgb(70,30,0)" />
<line x1="423" y1="49" x2="434" y2="49" stroke="rgb(70,30,0)" stroke-width="1" />
<line x1="434" y1="49" x2="434" y2="81" stroke="rgb(70,30,0)" stroke-width="1" />
<line x1="434" y1="81" x2="486" y2="49" stroke="rgb(70,30,0)" stroke-width="1" />
<line x1="486" y1="49" x2="434" y2="18" stroke="rgb(70,30,0)" stroke-width="1" />
<line x1="434" y1="18" x2="434" y2="49" stroke="rgb(70,30,0)" stroke-width="1" />
<line x1="502" y1="49" x2="506" y2="49" stroke="rgb(70,30,0)" stroke-width="1" />
<circle cx="494" cy="49" r="8" stroke="rgb(70,30,0)" fill="white" />
<line x1="537" y1="49" x2="548" y2="49" stroke="rgb(70,30,0)" stroke-width="1" />
<line x1="548" y1="49" x2="548" y2="81" stroke="rgb(70,30,0)" stroke-width="1" />
<line x1="548" y1="81" x2="600" y2="49" stroke="rgb(70,30,0)" stroke-width="1" />
<line x1="600" y1="49" x2="548" y2="18" stroke="rgb(70,30,0)" stroke-width="1" />
<line x1="548" y1="18" x2="548" y2="49" stroke="rgb(70,30,0)" stroke-width="1" />
<line x1="616" y1="49" x2="620" y2="49" stroke="rgb(70,30,0)" stroke-width="1" />
<circle cx="608" cy="49" r="8" stroke="rgb(70,30,0)" fill="white" />
<line x1="651" y1="49" x2="662" y2="49" stroke="rgb(70,30,0)" stroke-width="1" />
<line x1="662" y1="49" x2="662" y2="81" stroke="rgb(70,30,0)" stroke-width="1" />
<line x1="662" y1="81" x2="714" y2="49" stroke="rgb(70,30,0)" stroke-width="1" />
<line x1="714" y1="49" x2="662" y2="18" stroke="rgb(70,30,0)" stroke-width="1" />
<line x1="662" y1="18" x2="662" y2="49" stroke="rgb(70,30,0)" stroke-width="1" />
<line x1="730" y1="49" x2="734" y2="49" stroke="rgb(70,30,0)" stroke-width="1" />
<circle cx="722" cy="49" r="8" stroke="rgb(70,30,0)" fill="white" />
<line x1="755" y1="49" x2="765" y2="49" stroke="rgb(70,30,0)" stroke-width="1" />
<line x1="765" y1="49" x2="765" y2="81" stroke="rgb(70,30,0)" stroke-width="1" />
<line x1="765" y1="81" x2="817" y2="49" stroke="rgb(70,30,0)" stroke-width="1" />
<line x1="817" y1="49" x2="765" y2="18" stroke="rgb(70,30,0)" stroke-width="1" />
<line x1="765" y1="18" x2="765" y2="49" stroke="rgb(70,30,0)" stroke-width="1" />
<line x1="834" y1="49" x2="838" y2="49" stroke="rgb(70,30,0)" stroke-width="1" />
<circle cx="826" cy="49" r="8" stroke="rgb(70,30,0)" fill="white" />
<line x1="859" y1="49" x2="869" y2="49" stroke="rgb(70,30,0)" stroke-width="1" />
<line x1="869" y1="49" x2="869" y2="81" stroke="rgb(70,30,0)" stroke-width="1" />
<line x1="869" y1="81" x2="921" y2="49" stroke="rgb(70,30,0)" stroke-width="1" />
<line x1="921" y1="49" x2="869" y2="18" stroke="rgb(70,30,0)" stroke-width="1" />
<line x1="869" y1="18" x2="869" y2="49" stroke="rgb(70,30,0)" stroke-width="1" />
<line x1="937" y1="49" x2="942" y2="49" stroke="rgb(70,30,0)" stroke-width="1" />
<circle cx="929" cy="49" r="8" stroke="rgb(70,30,0)" fill="white" />
<line x1="1014" y1="60" x2="1014" y2="39" stroke="rgb(70,30,0)" stroke-width="1" />
<line x1="1014" y1="39" x2="1045" y2="39" stroke="rgb(70,30,0)" stroke-width="1" />
<line x1="1045" y1="39" x2="1056" y2="49" stroke="rgb(70,30,0)" stroke-width="1" />
<line x1="1056" y1="49" x2="1045" y2="60" stroke="rgb(70,30,0)" stroke-width="1" />
<line x1="1045" y1="60" x2="1014" y2="60" stroke="rgb(70,30,0)" stroke-width="1" />
<line x1="1004" y1="49" x2="1014" y2="49" stroke="rgb(70,30,0)" stroke-width="1" />
<circle cx="973" cy="49" r="4" fill="rgb(70,30,0)" />
<line x1="61" y1="39" x2="61" y2="18" stroke="rgb(70,30,0)" stroke-width="1" />
<line x1="61" y1="18" x2="92" y2="18" stroke="rgb(70,30,0)" stroke-width="1" />
<line x1="92" y1="18" x2="102" y2="29" stroke="rgb(70,30,0)" stroke-width="1" />
<line x1="102" y1="29" x2="92" y2="39" stroke="rgb(70,30,0)" stroke-width="1" />
<line x1="92" y1="39" x2="61" y2="39" stroke="rgb(70,30,0)" stroke-width="1" />
<line x1="102" y1="29" x2="112" y2="29" stroke="rgb(70,30,0)" stroke-width="1" />
<line x1="299" y1="49" x2="320" y2="49" stroke="rgb(0,30,0)" stroke-width="1" />
<circle cx="320" cy="49" r="4" stroke="rgb(0,30,0)" fill="white" />
<line x1="403" y1="49" x2="423" y2="49" stroke="rgb(0,30,0)" stroke-width="1" />
<circle cx="423" cy="49" r="4" stroke="rgb(0,30,0)" fill="white" />
<line x1="506" y1="49" x2="537" y2="49" stroke="rgb(0,30,0)" stroke-width="1" />
<circle cx="537" cy="49" r="4" stroke="rgb(0,30,0)" fill="white" />
<line x1="620" y1="49" x2="651" y2="49" stroke="rgb(0,30,0)" stroke-width="1" />
<circle cx="651" cy="49" r="4" stroke="rgb(0,30,0)" fill="white" />
<line x1="734" y1="49" x2="755" y2="49" stroke="rgb(0,30,0)" stroke-width="1" />
<circle cx="755" cy="49" r="4" stroke="rgb(0,30,0)" fill="white" />
<line x1="838" y1="49" x2="859" y2="49" stroke="rgb(0,30,0)" stroke-width="1" />
<circle cx="859" cy="49" r="4" stroke="rgb(0,30,0)" fill="white" />
<line x1="942" y1="49" x2="973" y2="49" stroke="rgb(0,30,0)" stroke-width="1" />
<line x1="973" y1="49" x2="1004" y2="49" stroke="rgb(0,30,0)" stroke-width="1" />
<circle cx="1004" cy="49" r="4" stroke="rgb(0,30,0)" fill="white" />
<line x1="973" y1="49" x2="973" y2="153" stroke="rgb(0,30,0)" stroke-width="1" />
<line x1="973" y1="153" x2="175" y2="153" stroke="rgb(0,30,0)" stroke-width="1" />
<line x1="175" y1="153" x2="175" y2="70" stroke="rgb(0,30,0)" stroke-width="1" />
<circle cx="175" cy="70" r="4" stroke="rgb(0,30,0)" fill="white" />
<line x1="112" y1="29" x2="175" y2="29" stroke="rgb(0,30,0)" stroke-width="1" />
<circle cx="175" cy="29" r="4" stroke="rgb(0,30,0)" fill="white" />
<line x1="9" y1="17" x2="6" y2="16" stroke="rgb(0,30,0)" stroke-width="1" />
<line x1="6" y1="16" x2="2" y2="15" stroke="rgb(0,30,0)" stroke-width="1" />
<line x1="0" y1="17" x2="0" y2="22" stroke="rgb(0,30,0)" stroke-width="1" />
<line x1="0" y1="17" x2="2" y2="15" stroke="rgb(0,30,0)" stroke-width="1" />
<line x1="0" y1="22" x2="4" y2="22" stroke="rgb(0,30,0)" stroke-width="1" />
<line x1="0" y1="22" x2="0" y2="27" stroke="rgb(0,30,0)" stroke-width="1" />
<line x1="0" y1="27" x2="3" y2="28" stroke="rgb(0,30,0)" stroke-width="1" />
<line x1="3" y1="28" x2="8" y2="28" stroke="rgb(0,30,0)" stroke-width="1" />
<line x1="8" y1="28" x2="9" y2="25" stroke="rgb(0,30,0)" stroke-width="1" />
<line x1="12" y1="28" x2="12" y2="15" stroke="rgb(0,30,0)" stroke-width="1" />
<line x1="12" y1="15" x2="21" y2="27" stroke="rgb(0,30,0)" stroke-width="1" />
<line x1="21" y1="27" x2="21" y2="15" stroke="rgb(0,30,0)" stroke-width="1" />
<line x1="1069" y1="47" x2="1067" y2="44" stroke="rgb(0,30,0)" stroke-width="1" />
<line x1="1069" y1="47" x2="1074" y2="46" stroke="rgb(0,30,0)" stroke-width="1" />
<line x1="1067" y1="44" x2="1067" y2="36" stroke="rgb(0,30,0)" stroke-width="1" />
<line x1="1067" y1="36" x2="1069" y2="34" stroke="rgb(0,30,0)" stroke-width="1" />
<line x1="1069" y1="34" x2="1074" y2="34" stroke="rgb(0,30,0)" stroke-width="1" />
<line x1="1074" y1="34" x2="1075" y2="36" stroke="rgb(0,30,0)" stroke-width="1" />
<line x1="1075" y1="36" x2="1075" y2="43" stroke="rgb(0,30,0)" stroke-width="1" />
<line x1="1075" y1="43" x2="1074" y2="46" stroke="rgb(0,30,0)" stroke-width="1" />
<line x1="1081" y1="47" x2="1085" y2="47" stroke="rgb(0,30,0)" stroke-width="1" />
<line x1="1085" y1="47" x2="1087" y2="44" stroke="rgb(0,30,0)" stroke-width="1" />
<line x1="1081" y1="47" x2="1079" y2="43" stroke="rgb(0,30,0)" stroke-width="1" />
<line x1="1079" y1="43" x2="1079" y2="39" stroke="rgb(0,30,0)" stroke-width="1" />
<line x1="1079" y1="39" x2="1080" y2="34" stroke="rgb(0,30,0)" stroke-width="1" />
<line x1="1087" y1="35" x2="1088" y2="39" stroke="rgb(0,30,0)" stroke-width="1" />
<line x1="1088" y1="39" x2="1087" y2="44" stroke="rgb(0,30,0)" stroke-width="1" />
<line x1="1091" y1="36" x2="1092" y2="34" stroke="rgb(0,30,0)" stroke-width="1" />
<line x1="1092" y1="34" x2="1096" y2="34" stroke="rgb(0,30,0)" stroke-width="1" />
<line x1="1096" y1="34" x2="1099" y2="34" stroke="rgb(0,30,0)" stroke-width="1" />
<line x1="1096" y1="34" x2="1096" y2="47" stroke="rgb(0,30,0)" stroke-width="1" />
<line x1="1099" y1="34" x2="1100" y2="36" stroke="rgb(0,30,0)" stroke-width="1" />
</svg>
