<svg width="1200" height="394" xmlns="http://www.w3.org/2000/svg" version="1.1">
<line x1="321" y1="70" x2="331" y2="70" stroke="rgb(70,30,0)" stroke-width="1" />
<line x1="331" y1="70" x2="331" y2="102" stroke="rgb(70,30,0)" stroke-width="1" />
<line x1="331" y1="102" x2="383" y2="70" stroke="rgb(70,30,0)" stroke-width="1" />
<line x1="383" y1="70" x2="331" y2="39" stroke="rgb(70,30,0)" stroke-width="1" />
<line x1="331" y1="39" x2="331" y2="70" stroke="rgb(70,30,0)" stroke-width="1" />
<line x1="399" y1="70" x2="404" y2="70" stroke="rgb(70,30,0)" stroke-width="1" />
<circle cx="391" cy="70" r="8" stroke="rgb(70,30,0)" fill="white" />
<line x1="176" y1="91" x2="196" y2="91" stroke="rgb(70,30,0)" stroke-width="1" />
<line x1="196" y1="91" x2="196" y2="102" stroke="rgb(70,30,0)" stroke-width="1" />
<line x1="196" y1="102" x2="248" y2="102" stroke="rgb(70,30,0)" stroke-width="1" />
<line x1="176" y1="50" x2="196" y2="50" stroke="rgb(70,30,0)" stroke-width="1" />
<line x1="196" y1="50" x2="196" y2="39" stroke="rgb(70,30,0)" stroke-width="1" />
<line x1="196" y1="39" x2="248" y2="39" stroke="rgb(70,30,0)" stroke-width="1" />
<line x1="196" y1="91" x2="196" y2="50" stroke="rgb(70,30,0)" stroke-width="1" />
<line x1="296" y1="70" x2="300" y2="70" stroke="rgb(70,30,0)" stroke-width="1" />
<line x1="248" y1="102" x2="259" y2="97" stroke="rgb(70,30,0)" stroke-width="1" />
<line x1="259" y1="97" x2="275" y2="89" stroke="rgb(70,30,0)" stroke-width="1" />
<line x1="275" y1="89" x2="279" y2="70" stroke="rgb(70,30,0)" stroke-width="1" />
<line x1="279" y1="70" x2="275" y2="54" stroke="rgb(70,30,0)" stroke-width="1" />
<line x1="275" y1="54" x2="259" y2="44" stroke="rgb(70,30,0)" stroke-width="1" />
<line x1="259" y1="44" x2="248" y2="39" stroke="rgb(70,30,0)" stroke-width="1" />
<circle cx="288" cy="70" r="8" stroke="rgb(70,30,0)" fill="white" />
<circle cx="213" cy="52" r="6" fill="rgb(70,30,0)" />
<line x1="414" y1="70" x2="424" y2="70" stroke="rgb(70,30,0)" stroke-width="1" />
<line x1="424" y1="70" x2="424" y2="102" stroke="rgb(70,30,0)" stroke-width="1" />
<line x1="424" y1="102" x2="476" y2="70" stroke="rgb(70,30,0)" stroke-width="1" />
<line x1="476" y1="70" x2="424" y2="39" stroke="rgb(70,30,0)" stroke-width="1" />
<line x1="424" y1="39" x2="424" y2="70" stroke="rgb(70,30,0)" stroke-width="1" />
<line x1="493" y1="70" x2="497" y2="70" stroke="rgb(70,30,0)" stroke-width="1" />
<circle cx="484" cy="70" r="8" stroke="rgb(70,30,0)" fill="white" />
<line x1="549" y1="70" x2="559" y2="70" stroke="rgb(70,30,0)" stroke-width="1" />
<line x1="559" y1="70" x2="559" y2="102" stroke="rgb(70,30,0)" stroke-width="1" />
<line x1="559" y1="102" x2="611" y2="70" stroke="rgb(70,30,0)" stroke-width="1" />
<line x1="611" y1="70" x2="559" y2="39" stroke="rgb(70,30,0)" stroke-width="1" />
<line x1="559" y1="39" x2="559" y2="70" stroke="rgb(70,30,0)" stroke-width="1" />
<line x1="628" y1="70" x2="632" y2="70" stroke="rgb(70,30,0)" stroke-width="1" />
<circle cx="619" cy="70" r="8" stroke="rgb(70,30,0)" fill="white" />
<line x1="652" y1="70" x2="663" y2="70" stroke="rgb(70,30,0)" stroke-width="1" />
<line x1="663" y1="70" x2="663" y2="102" stroke="rgb(70,30,0)" stroke-width="1" />
<line x1="663" y1="102" x2="715" y2="70" stroke="rgb(70,30,0)" stroke-width="1" />
<line x1="715" y1="70" x2="663" y2="39" stroke="rgb(70,30,0)" stroke-width="1" />
<line x1="663" y1="39" x2="663" y2="70" stroke="rgb(70,30,0)" stroke-width="1" />
<line x1="731" y1="70" x2="735" y2="70" stroke="rgb(70,30,0)" stroke-width="1" />
<circle cx="723" cy="70" r="8" stroke="rgb(70,30,0)" fill="white" />
<line x1="756" y1="70" x2="766" y2="70" stroke="rgb(70,30,0)" stroke-width="1" />
<line x1="766" y1="70" x2="766" y2="102" stroke="rgb(70,30,0)" stroke-width="1" />
<line x1="766" y1="102" x2="818" y2="70" stroke="rgb(70,30,0)" stroke-width="1" />
<line x1="818" y1="70" x2="766" y2="39" stroke="rgb(70,30,0)" stroke-width="1" />
<line x1="766" y1="39" x2="766" y2="70" stroke="rgb(70,30,0)" stroke-width="1" />
<line x1="835" y1="70" x2="839" y2="70" stroke="rgb(70,30,0)" stroke-width="1" />
<circle cx="827" cy="70" r="8" stroke="rgb(70,30,0)" fill="white" />
<line x1="860" y1="70" x2="870" y2="70" stroke="rgb(70,30,0)" stroke-width="1" />
<line x1="870" y1="70" x2="870" y2="102" stroke="rgb(70,30,0)" stroke-width="1" />
<line x1="870" y1="102" x2="922" y2="70" stroke="rgb(70,30,0)" stroke-width="1" />
<line x1="922" y1="70" x2="870" y2="39" stroke="rgb(70,30,0)" stroke-width="1" />
<line x1="870" y1="39" x2="870" y2="70" stroke="rgb(70,30,0)" stroke-width="1" />
<line x1="938" y1="70" x2="943" y2="70" stroke="rgb(70,30,0)" stroke-width="1" />
<circle cx="930" cy="70" r="8" stroke="rgb(70,30,0)" fill="white" />
<line x1="1015" y1="81" x2="1015" y2="60" stroke="rgb(70,30,0)" stroke-width="1" />
<line x1="1015" y1="60" x2="1046" y2="60" stroke="rgb(70,30,0)" stroke-width="1" />
<line x1="1046" y1="60" x2="1057" y2="70" stroke="rgb(70,30,0)" stroke-width="1" />
<line x1="1057" y1="70" x2="1046" y2="81" stroke="rgb(70,30,0)" stroke-width="1" />
<line x1="1046" y1="81" x2="1015" y2="81" stroke="rgb(70,30,0)" stroke-width="1" />
<line x1="1005" y1="70" x2="1015" y2="70" stroke="rgb(70,30,0)" stroke-width="1" />
<circle cx="974" cy="70" r="4" fill="rgb(70,30,0)" />
<line x1="62" y1="60" x2="62" y2="39" stroke="rgb(70,30,0)" stroke-width="1" />
<line x1="62" y1="39" x2="93" y2="39" stroke="rgb(70,30,0)" stroke-width="1" />
<line x1="93" y1="39" x2="103" y2="50" stroke="rgb(70,30,0)" stroke-width="1" />
<line x1="103" y1="50" x2="93" y2="60" stroke="rgb(70,30,0)" stroke-width="1" />
<line x1="93" y1="60" x2="62" y2="60" stroke="rgb(70,30,0)" stroke-width="1" />
<line x1="103" y1="50" x2="113" y2="50" stroke="rgb(70,30,0)" stroke-width="1" />
<line x1="455" y1="174" x2="435" y2="174" stroke="rgb(70,30,0)" stroke-width="1" />
<line x1="476" y1="195" x2="476" y2="216" stroke="rgb(70,30,0)" stroke-width="1" />
<line x1="518" y1="195" x2="505" y2="195" stroke="rgb(70,30,0)" stroke-width="1" />
<line x1="518" y1="153" x2="505" y2="153" stroke="rgb(70,30,0)" stroke-width="1" />
<line x1="455" y1="182" x2="505" y2="207" stroke="rgb(70,30,0)" stroke-width="1" />
<line x1="505" y1="207" x2="505" y2="141" stroke="rgb(70,30,0)" stroke-width="1" />
<line x1="505" y1="141" x2="455" y2="166" stroke="rgb(70,30,0)" stroke-width="1" />
<line x1="455" y1="166" x2="455" y2="182" stroke="rgb(70,30,0)" stroke-width="1" />
<circle cx="493" cy="187" r="6" fill="rgb(70,30,0)" />
<circle cx="518" cy="70" r="4" fill="rgb(70,30,0)" />
<line x1="487" y1="329" x2="466" y2="329" stroke="rgb(70,30,0)" stroke-width="1" />
<line x1="466" y1="329" x2="466" y2="298" stroke="rgb(70,30,0)" stroke-width="1" />
<line x1="466" y1="298" x2="476" y2="288" stroke="rgb(70,30,0)" stroke-width="1" />
<line x1="476" y1="288" x2="487" y2="298" stroke="rgb(70,30,0)" stroke-width="1" />
<line x1="487" y1="298" x2="487" y2="329" stroke="rgb(70,30,0)" stroke-width="1" />
<line x1="476" y1="288" x2="476" y2="278" stroke="rgb(70,30,0)" stroke-width="1" />
<line x1="300" y1="70" x2="321" y2="70" stroke="rgb(0,30,0)" stroke-width="1" />
<circle cx="321" cy="70" r="4" stroke="rgb(0,30,0)" fill="white" />
<line x1="404" y1="70" x2="414" y2="70" stroke="rgb(0,30,0)" stroke-width="1" />
<circle cx="414" cy="70" r="4" stroke="rgb(0,30,0)" fill="white" />
<line x1="497" y1="70" x2="518" y2="70" stroke="rgb(0,30,0)" stroke-width="1" />
<line x1="632" y1="70" x2="652" y2="70" stroke="rgb(0,30,0)" stroke-width="1" />
<circle cx="652" cy="70" r="4" stroke="rgb(0,30,0)" fill="white" />
<line x1="735" y1="70" x2="756" y2="70" stroke="rgb(0,30,0)" stroke-width="1" />
<circle cx="756" cy="70" r="4" stroke="rgb(0,30,0)" fill="white" />
<line x1="839" y1="70" x2="860" y2="70" stroke="rgb(0,30,0)" stroke-width="1" />
<circle cx="860" cy="70" r="4" stroke="rgb(0,30,0)" fill="white" />
<line x1="943" y1="70" x2="974" y2="70" stroke="rgb(0,30,0)" stroke-width="1" />
<line x1="974" y1="70" x2="1005" y2="70" stroke="rgb(0,30,0)" stroke-width="1" />
<circle cx="1005" cy="70" r="4" stroke="rgb(0,30,0)" fill="white" />
<line x1="974" y1="70" x2="974" y2="195" stroke="rgb(0,30,0)" stroke-width="1" />
<line x1="176" y1="174" x2="176" y2="91" stroke="rgb(0,30,0)" stroke-width="1" />
<circle cx="176" cy="91" r="4" stroke="rgb(0,30,0)" fill="white" />
<line x1="113" y1="50" x2="176" y2="50" stroke="rgb(0,30,0)" stroke-width="1" />
<circle cx="176" cy="50" r="4" stroke="rgb(0,30,0)" fill="white" />
<line x1="435" y1="174" x2="176" y2="174" stroke="rgb(0,30,0)" stroke-width="1" />
<line x1="518" y1="70" x2="549" y2="70" stroke="rgb(0,30,0)" stroke-width="1" />
<circle cx="549" cy="70" r="4" stroke="rgb(0,30,0)" fill="white" />
<line x1="518" y1="70" x2="518" y2="153" stroke="rgb(0,30,0)" stroke-width="1" />
<circle cx="518" cy="153" r="4" stroke="rgb(0,30,0)" fill="white" />
<line x1="974" y1="195" x2="518" y2="195" stroke="rgb(0,30,0)" stroke-width="1" />
<circle cx="518" cy="195" r="4" stroke="rgb(0,30,0)" fill="white" />
<line x1="476" y1="278" x2="476" y2="216" stroke="rgb(0,30,0)" stroke-width="1" />
<circle cx="476" cy="216" r="4" stroke="rgb(0,30,0)" fill="white" />
<line x1="9" y1="39" x2="7" y2="38" stroke="rgb(0,30,0)" stroke-width="1" />
<line x1="7" y1="38" x2="3" y2="37" stroke="rgb(0,30,0)" stroke-width="1" />
<line x1="0" y1="39" x2="1" y2="44" stroke="rgb(0,30,0)" stroke-width="1" />
<line x1="0" y1="39" x2="3" y2="37" stroke="rgb(0,30,0)" stroke-width="1" />
<line x1="1" y1="44" x2="5" y2="44" stroke="rgb(0,30,0)" stroke-width="1" />
<line x1="1" y1="44" x2="0" y2="49" stroke="rgb(0,30,0)" stroke-width="1" />
<line x1="0" y1="49" x2="3" y2="50" stroke="rgb(0,30,0)" stroke-width="1" />
<line x1="3" y1="50" x2="8" y2="50" stroke="rgb(0,30,0)" stroke-width="1" />
<line x1="8" y1="50" x2="9" y2="47" stroke="rgb(0,30,0)" stroke-width="1" />
<line x1="13" y1="50" x2="13" y2="37" stroke="rgb(0,30,0)" stroke-width="1" />
<line x1="13" y1="37" x2="22" y2="49" stroke="rgb(0,30,0)" stroke-width="1" />
<line x1="22" y1="49" x2="22" y2="37" stroke="rgb(0,30,0)" stroke-width="1" />
<line x1="1069" y1="68" x2="1067" y2="66" stroke="rgb(0,30,0)" stroke-width="1" />
<line x1="1069" y1="68" x2="1074" y2="68" stroke="rgb(0,30,0)" stroke-width="1" />
<line x1="1067" y1="66" x2="1067" y2="58" stroke="rgb(0,30,0)" stroke-width="1" />
<line x1="1067" y1="58" x2="1069" y2="56" stroke="rgb(0,30,0)" stroke-width="1" />
<line x1="1069" y1="56" x2="1074" y2="56" stroke="rgb(0,30,0)" stroke-width="1" />
<line x1="1074" y1="56" x2="1076" y2="58" stroke="rgb(0,30,0)" stroke-width="1" />
<line x1="1076" y1="58" x2="1076" y2="65" stroke="rgb(0,30,0)" stroke-width="1" />
<line x1="1076" y1="65" x2="1074" y2="68" stroke="rgb(0,30,0)" stroke-width="1" />
<line x1="1081" y1="68" x2="1085" y2="68" stroke="rgb(0,30,0)" stroke-width="1" />
<line x1="1085" y1="68" x2="1088" y2="65" stroke="rgb(0,30,0)" stroke-width="1" />
<line x1="1081" y1="68" x2="1079" y2="65" stroke="rgb(0,30,0)" stroke-width="1" />
<line x1="1079" y1="65" x2="1079" y2="60" stroke="rgb(0,30,0)" stroke-width="1" />
<line x1="1079" y1="60" x2="1081" y2="56" stroke="rgb(0,30,0)" stroke-width="1" />
<line x1="1087" y1="57" x2="1088" y2="61" stroke="rgb(0,30,0)" stroke-width="1" />
<line x1="1088" y1="61" x2="1088" y2="65" stroke="rgb(0,30,0)" stroke-width="1" />
<line x1="1092" y1="58" x2="1093" y2="56" stroke="rgb(0,30,0)" stroke-width="1" />
<line x1="1093" y1="56" x2="1096" y2="56" stroke="rgb(0,30,0)" stroke-width="1" />
<line x1="1096" y1="56" x2="1100" y2="56" stroke="rgb(0,30,0)" stroke-width="1" />
<line x1="1096" y1="56" x2="1096" y2="68" stroke="rgb(0,30,0)" stroke-width="1" />
<line x1="1100" y1="56" x2="1101" y2="58" stroke="rgb(0,30,0)" stroke-width="1" />
<line x1="435" y1="373" x2="435" y2="367" stroke="rgb(0,30,0)" stroke-width="1" />
<line x1="435" y1="363" x2="438" y2="361" stroke="rgb(0,30,0)" stroke-width="1" />
<line x1="435" y1="363" x2="435" y2="367" stroke="rgb(0,30,0)" stroke-width="1" />
<line x1="438" y1="361" x2="444" y2="361" stroke="rgb(0,30,0)" stroke-width="1" />
<line x1="435" y1="367" x2="441" y2="367" stroke="rgb(0,30,0)" stroke-width="1" />
<line x1="448" y1="373" x2="448" y2="368" stroke="rgb(0,30,0)" stroke-width="1" />
<line x1="447" y1="363" x2="449" y2="361" stroke="rgb(0,30,0)" stroke-width="1" />
<line x1="447" y1="363" x2="448" y2="368" stroke="rgb(0,30,0)" stroke-width="1" />
<line x1="449" y1="361" x2="454" y2="361" stroke="rgb(0,30,0)" stroke-width="1" />
<line x1="454" y1="361" x2="456" y2="363" stroke="rgb(0,30,0)" stroke-width="1" />
<line x1="456" y1="363" x2="456" y2="367" stroke="rgb(0,30,0)" stroke-width="1" />
<line x1="456" y1="367" x2="453" y2="368" stroke="rgb(0,30,0)" stroke-width="1" />
<line x1="453" y1="368" x2="448" y2="368" stroke="rgb(0,30,0)" stroke-width="1" />
<line x1="448" y1="368" x2="453" y2="373" stroke="rgb(0,30,0)" stroke-width="1" />
<line x1="453" y1="373" x2="455" y2="373" stroke="rgb(0,30,0)" stroke-width="1" />
<line x1="468" y1="363" x2="466" y2="362" stroke="rgb(0,30,0)" stroke-width="1" />
<line x1="466" y1="362" x2="462" y2="361" stroke="rgb(0,30,0)" stroke-width="1" />
<line x1="459" y1="363" x2="460" y2="367" stroke="rgb(0,30,0)" stroke-width="1" />
<line x1="459" y1="363" x2="462" y2="361" stroke="rgb(0,30,0)" stroke-width="1" />
<line x1="460" y1="367" x2="464" y2="367" stroke="rgb(0,30,0)" stroke-width="1" />
<line x1="460" y1="367" x2="459" y2="372" stroke="rgb(0,30,0)" stroke-width="1" />
<line x1="459" y1="372" x2="462" y2="373" stroke="rgb(0,30,0)" stroke-width="1" />
<line x1="462" y1="373" x2="467" y2="373" stroke="rgb(0,30,0)" stroke-width="1" />
<line x1="467" y1="373" x2="468" y2="371" stroke="rgb(0,30,0)" stroke-width="1" />
<line x1="474" y1="373" x2="479" y2="373" stroke="rgb(0,30,0)" stroke-width="1" />
<line x1="479" y1="373" x2="480" y2="370" stroke="rgb(0,30,0)" stroke-width="1" />
<line x1="474" y1="373" x2="472" y2="370" stroke="rgb(0,30,0)" stroke-width="1" />
<line x1="472" y1="370" x2="472" y2="365" stroke="rgb(0,30,0)" stroke-width="1" />
<line x1="472" y1="365" x2="474" y2="361" stroke="rgb(0,30,0)" stroke-width="1" />
<line x1="474" y1="361" x2="478" y2="361" stroke="rgb(0,30,0)" stroke-width="1" />
<line x1="478" y1="361" x2="480" y2="364" stroke="rgb(0,30,0)" stroke-width="1" />
<line x1="480" y1="364" x2="480" y2="370" stroke="rgb(0,30,0)" stroke-width="1" />
<line x1="478" y1="368" x2="481" y2="375" stroke="rgb(0,30,0)" stroke-width="1" />
</svg>
