<svg width="1200" height="586" xmlns="http://www.w3.org/2000/svg" version="1.1">
<line x1="496" y1="344" x2="496" y2="306" stroke="rgb(70,30,0)" stroke-width="1" />
<line x1="496" y1="306" x2="533" y2="306" stroke="rgb(70,30,0)" stroke-width="1" />
<line x1="572" y1="306" x2="533" y2="306" stroke="rgb(70,30,0)" stroke-width="1" />
<line x1="572" y1="306" x2="572" y2="345" stroke="rgb(70,30,0)" stroke-width="1" />
<line x1="572" y1="345" x2="572" y2="387" stroke="rgb(70,30,0)" stroke-width="1" />
<line x1="572" y1="387" x2="496" y2="387" stroke="rgb(70,30,0)" stroke-width="1" />
<line x1="496" y1="387" x2="496" y2="344" stroke="rgb(70,30,0)" stroke-width="1" />
<line x1="533" y1="279" x2="533" y2="306" stroke="rgb(70,30,0)" stroke-width="1" />
<line x1="599" y1="345" x2="572" y2="345" stroke="rgb(70,30,0)" stroke-width="1" />
<line x1="471" y1="344" x2="496" y2="344" stroke="rgb(70,30,0)" stroke-width="1" />
<line x1="505" y1="345" x2="508" y2="345" stroke="rgb(70,30,0)" stroke-width="1" />
<line x1="512" y1="345" x2="514" y2="346" stroke="rgb(70,30,0)" stroke-width="1" />
<line x1="512" y1="345" x2="508" y2="345" stroke="rgb(70,30,0)" stroke-width="1" />
<line x1="514" y1="346" x2="514" y2="355" stroke="rgb(70,30,0)" stroke-width="1" />
<line x1="514" y1="355" x2="511" y2="357" stroke="rgb(70,30,0)" stroke-width="1" />
<line x1="511" y1="357" x2="508" y2="357" stroke="rgb(70,30,0)" stroke-width="1" />
<line x1="505" y1="357" x2="508" y2="357" stroke="rgb(70,30,0)" stroke-width="1" />
<line x1="508" y1="345" x2="508" y2="357" stroke="rgb(70,30,0)" stroke-width="1" />
<line x1="554" y1="357" x2="559" y2="357" stroke="rgb(70,30,0)" stroke-width="1" />
<line x1="559" y1="357" x2="560" y2="354" stroke="rgb(70,30,0)" stroke-width="1" />
<line x1="554" y1="357" x2="552" y2="353" stroke="rgb(70,30,0)" stroke-width="1" />
<line x1="552" y1="353" x2="552" y2="348" stroke="rgb(70,30,0)" stroke-width="1" />
<line x1="552" y1="348" x2="554" y2="345" stroke="rgb(70,30,0)" stroke-width="1" />
<line x1="554" y1="345" x2="558" y2="345" stroke="rgb(70,30,0)" stroke-width="1" />
<line x1="558" y1="345" x2="560" y2="348" stroke="rgb(70,30,0)" stroke-width="1" />
<line x1="560" y1="348" x2="560" y2="354" stroke="rgb(70,30,0)" stroke-width="1" />
<line x1="558" y1="352" x2="561" y2="359" stroke="rgb(70,30,0)" stroke-width="1" />
<line x1="527" y1="319" x2="522" y2="319" stroke="rgb(70,30,0)" stroke-width="1" />
<line x1="522" y1="319" x2="518" y2="321" stroke="rgb(70,30,0)" stroke-width="1" />
<line x1="518" y1="321" x2="518" y2="329" stroke="rgb(70,30,0)" stroke-width="1" />
<line x1="518" y1="329" x2="520" y2="332" stroke="rgb(70,30,0)" stroke-width="1" />
<line x1="520" y1="332" x2="526" y2="332" stroke="rgb(70,30,0)" stroke-width="1" />
<line x1="531" y1="320" x2="532" y2="325" stroke="rgb(70,30,0)" stroke-width="1" />
<line x1="530" y1="332" x2="532" y2="325" stroke="rgb(70,30,0)" stroke-width="1" />
<line x1="540" y1="319" x2="535" y2="324" stroke="rgb(70,30,0)" stroke-width="1" />
<line x1="532" y1="325" x2="535" y2="324" stroke="rgb(70,30,0)" stroke-width="1" />
<line x1="535" y1="324" x2="539" y2="331" stroke="rgb(70,30,0)" stroke-width="1" />
<line x1="709" y1="344" x2="709" y2="306" stroke="rgb(70,30,0)" stroke-width="1" />
<line x1="709" y1="306" x2="745" y2="306" stroke="rgb(70,30,0)" stroke-width="1" />
<line x1="784" y1="306" x2="745" y2="306" stroke="rgb(70,30,0)" stroke-width="1" />
<line x1="784" y1="306" x2="784" y2="345" stroke="rgb(70,30,0)" stroke-width="1" />
<line x1="784" y1="345" x2="784" y2="387" stroke="rgb(70,30,0)" stroke-width="1" />
<line x1="784" y1="387" x2="709" y2="387" stroke="rgb(70,30,0)" stroke-width="1" />
<line x1="709" y1="387" x2="709" y2="344" stroke="rgb(70,30,0)" stroke-width="1" />
<line x1="745" y1="279" x2="745" y2="306" stroke="rgb(70,30,0)" stroke-width="1" />
<line x1="811" y1="345" x2="784" y2="345" stroke="rgb(70,30,0)" stroke-width="1" />
<line x1="684" y1="344" x2="709" y2="344" stroke="rgb(70,30,0)" stroke-width="1" />
<line x1="718" y1="345" x2="721" y2="345" stroke="rgb(70,30,0)" stroke-width="1" />
<line x1="724" y1="345" x2="727" y2="346" stroke="rgb(70,30,0)" stroke-width="1" />
<line x1="724" y1="345" x2="721" y2="345" stroke="rgb(70,30,0)" stroke-width="1" />
<line x1="727" y1="346" x2="726" y2="355" stroke="rgb(70,30,0)" stroke-width="1" />
<line x1="726" y1="355" x2="723" y2="357" stroke="rgb(70,30,0)" stroke-width="1" />
<line x1="723" y1="357" x2="720" y2="357" stroke="rgb(70,30,0)" stroke-width="1" />
<line x1="718" y1="357" x2="720" y2="357" stroke="rgb(70,30,0)" stroke-width="1" />
<line x1="721" y1="345" x2="720" y2="357" stroke="rgb(70,30,0)" stroke-width="1" />
<line x1="766" y1="357" x2="771" y2="357" stroke="rgb(70,30,0)" stroke-width="1" />
<line x1="771" y1="357" x2="773" y2="354" stroke="rgb(70,30,0)" stroke-width="1" />
<line x1="766" y1="357" x2="764" y2="353" stroke="rgb(70,30,0)" stroke-width="1" />
<line x1="764" y1="353" x2="764" y2="348" stroke="rgb(70,30,0)" stroke-width="1" />
<line x1="764" y1="348" x2="766" y2="345" stroke="rgb(70,30,0)" stroke-width="1" />
<line x1="766" y1="345" x2="771" y2="345" stroke="rgb(70,30,0)" stroke-width="1" />
<line x1="771" y1="345" x2="773" y2="348" stroke="rgb(70,30,0)" stroke-width="1" />
<line x1="773" y1="348" x2="773" y2="354" stroke="rgb(70,30,0)" stroke-width="1" />
<line x1="771" y1="352" x2="774" y2="359" stroke="rgb(70,30,0)" stroke-width="1" />
<line x1="740" y1="319" x2="734" y2="319" stroke="rgb(70,30,0)" stroke-width="1" />
<line x1="734" y1="319" x2="730" y2="321" stroke="rgb(70,30,0)" stroke-width="1" />
<line x1="730" y1="321" x2="730" y2="329" stroke="rgb(70,30,0)" stroke-width="1" />
<line x1="730" y1="329" x2="732" y2="332" stroke="rgb(70,30,0)" stroke-width="1" />
<line x1="732" y1="332" x2="738" y2="332" stroke="rgb(70,30,0)" stroke-width="1" />
<line x1="744" y1="320" x2="744" y2="325" stroke="rgb(70,30,0)" stroke-width="1" />
<line x1="743" y1="332" x2="744" y2="325" stroke="rgb(70,30,0)" stroke-width="1" />
<line x1="752" y1="319" x2="747" y2="324" stroke="rgb(70,30,0)" stroke-width="1" />
<line x1="744" y1="325" x2="747" y2="324" stroke="rgb(70,30,0)" stroke-width="1" />
<line x1="747" y1="324" x2="752" y2="331" stroke="rgb(70,30,0)" stroke-width="1" />
<line x1="939" y1="366" x2="939" y2="323" stroke="rgb(70,30,0)" stroke-width="1" />
<line x1="939" y1="323" x2="1002" y2="323" stroke="rgb(70,30,0)" stroke-width="1" />
<line x1="1002" y1="323" x2="1024" y2="345" stroke="rgb(70,30,0)" stroke-width="1" />
<line x1="1024" y1="345" x2="1002" y2="366" stroke="rgb(70,30,0)" stroke-width="1" />
<line x1="1002" y1="366" x2="939" y2="366" stroke="rgb(70,30,0)" stroke-width="1" />
<line x1="917" y1="345" x2="939" y2="345" stroke="rgb(70,30,0)" stroke-width="1" />
<line x1="156" y1="344" x2="156" y2="306" stroke="rgb(70,30,0)" stroke-width="1" />
<line x1="156" y1="306" x2="192" y2="306" stroke="rgb(70,30,0)" stroke-width="1" />
<line x1="232" y1="306" x2="192" y2="306" stroke="rgb(70,30,0)" stroke-width="1" />
<line x1="232" y1="306" x2="232" y2="345" stroke="rgb(70,30,0)" stroke-width="1" />
<line x1="232" y1="345" x2="232" y2="387" stroke="rgb(70,30,0)" stroke-width="1" />
<line x1="232" y1="387" x2="156" y2="387" stroke="rgb(70,30,0)" stroke-width="1" />
<line x1="156" y1="387" x2="156" y2="344" stroke="rgb(70,30,0)" stroke-width="1" />
<line x1="192" y1="279" x2="192" y2="306" stroke="rgb(70,30,0)" stroke-width="1" />
<line x1="258" y1="345" x2="232" y2="345" stroke="rgb(70,30,0)" stroke-width="1" />
<line x1="131" y1="344" x2="156" y2="344" stroke="rgb(70,30,0)" stroke-width="1" />
<line x1="165" y1="345" x2="168" y2="345" stroke="rgb(70,30,0)" stroke-width="1" />
<line x1="171" y1="345" x2="174" y2="346" stroke="rgb(70,30,0)" stroke-width="1" />
<line x1="171" y1="345" x2="168" y2="345" stroke="rgb(70,30,0)" stroke-width="1" />
<line x1="174" y1="346" x2="173" y2="355" stroke="rgb(70,30,0)" stroke-width="1" />
<line x1="173" y1="355" x2="170" y2="357" stroke="rgb(70,30,0)" stroke-width="1" />
<line x1="170" y1="357" x2="167" y2="357" stroke="rgb(70,30,0)" stroke-width="1" />
<line x1="165" y1="357" x2="167" y2="357" stroke="rgb(70,30,0)" stroke-width="1" />
<line x1="168" y1="345" x2="167" y2="357" stroke="rgb(70,30,0)" stroke-width="1" />
<line x1="214" y1="357" x2="219" y2="357" stroke="rgb(70,30,0)" stroke-width="1" />
<line x1="219" y1="357" x2="220" y2="354" stroke="rgb(70,30,0)" stroke-width="1" />
<line x1="214" y1="357" x2="212" y2="353" stroke="rgb(70,30,0)" stroke-width="1" />
<line x1="212" y1="353" x2="212" y2="348" stroke="rgb(70,30,0)" stroke-width="1" />
<line x1="212" y1="348" x2="214" y2="345" stroke="rgb(70,30,0)" stroke-width="1" />
<line x1="214" y1="345" x2="218" y2="345" stroke="rgb(70,30,0)" stroke-width="1" />
<line x1="218" y1="345" x2="220" y2="348" stroke="rgb(70,30,0)" stroke-width="1" />
<line x1="220" y1="348" x2="220" y2="354" stroke="rgb(70,30,0)" stroke-width="1" />
<line x1="218" y1="352" x2="221" y2="359" stroke="rgb(70,30,0)" stroke-width="1" />
<line x1="187" y1="319" x2="182" y2="319" stroke="rgb(70,30,0)" stroke-width="1" />
<line x1="182" y1="319" x2="178" y2="321" stroke="rgb(70,30,0)" stroke-width="1" />
<line x1="178" y1="321" x2="178" y2="329" stroke="rgb(70,30,0)" stroke-width="1" />
<line x1="178" y1="329" x2="180" y2="332" stroke="rgb(70,30,0)" stroke-width="1" />
<line x1="180" y1="332" x2="186" y2="332" stroke="rgb(70,30,0)" stroke-width="1" />
<line x1="191" y1="320" x2="191" y2="325" stroke="rgb(70,30,0)" stroke-width="1" />
<line x1="190" y1="332" x2="191" y2="325" stroke="rgb(70,30,0)" stroke-width="1" />
<line x1="200" y1="319" x2="194" y2="324" stroke="rgb(70,30,0)" stroke-width="1" />
<line x1="191" y1="325" x2="194" y2="324" stroke="rgb(70,30,0)" stroke-width="1" />
<line x1="194" y1="324" x2="199" y2="331" stroke="rgb(70,30,0)" stroke-width="1" />
<circle cx="365" cy="345" r="8" fill="rgb(70,30,0)" />
<line x1="513" y1="89" x2="556" y2="89" stroke="rgb(70,30,0)" stroke-width="1" />
<line x1="556" y1="89" x2="556" y2="153" stroke="rgb(70,30,0)" stroke-width="1" />
<line x1="556" y1="153" x2="535" y2="174" stroke="rgb(70,30,0)" stroke-width="1" />
<line x1="535" y1="174" x2="513" y2="153" stroke="rgb(70,30,0)" stroke-width="1" />
<line x1="513" y1="153" x2="513" y2="89" stroke="rgb(70,30,0)" stroke-width="1" />
<line x1="535" y1="174" x2="535" y2="196" stroke="rgb(70,30,0)" stroke-width="1" />
<circle cx="195" cy="196" r="8" fill="rgb(70,30,0)" />
<circle cx="46" cy="345" r="8" fill="rgb(70,30,0)" />
<line x1="365" y1="366" x2="365" y2="323" stroke="rgb(70,30,0)" stroke-width="1" />
<line x1="365" y1="323" x2="428" y2="323" stroke="rgb(70,30,0)" stroke-width="1" />
<line x1="428" y1="323" x2="450" y2="345" stroke="rgb(70,30,0)" stroke-width="1" />
<line x1="450" y1="345" x2="428" y2="366" stroke="rgb(70,30,0)" stroke-width="1" />
<line x1="428" y1="366" x2="365" y2="366" stroke="rgb(70,30,0)" stroke-width="1" />
<line x1="450" y1="345" x2="471" y2="345" stroke="rgb(70,30,0)" stroke-width="1" />
<line x1="301" y1="515" x2="301" y2="493" stroke="rgb(70,30,0)" stroke-width="1" />
<line x1="301" y1="493" x2="343" y2="493" stroke="rgb(70,30,0)" stroke-width="1" />
<line x1="343" y1="493" x2="258" y2="493" stroke="rgb(70,30,0)" stroke-width="1" />
<line x1="493" y1="451" x2="493" y2="438" stroke="rgb(70,30,0)" stroke-width="1" />
<line x1="492" y1="429" x2="498" y2="425" stroke="rgb(70,30,0)" stroke-width="1" />
<line x1="492" y1="429" x2="493" y2="438" stroke="rgb(70,30,0)" stroke-width="1" />
<line x1="498" y1="425" x2="511" y2="425" stroke="rgb(70,30,0)" stroke-width="1" />
<line x1="493" y1="438" x2="504" y2="438" stroke="rgb(70,30,0)" stroke-width="1" />
<line x1="519" y1="425" x2="518" y2="447" stroke="rgb(70,30,0)" stroke-width="1" />
<line x1="518" y1="447" x2="522" y2="451" stroke="rgb(70,30,0)" stroke-width="1" />
<line x1="522" y1="451" x2="536" y2="451" stroke="rgb(70,30,0)" stroke-width="1" />
<line x1="548" y1="451" x2="543" y2="446" stroke="rgb(70,30,0)" stroke-width="1" />
<line x1="548" y1="451" x2="559" y2="450" stroke="rgb(70,30,0)" stroke-width="1" />
<line x1="543" y1="446" x2="543" y2="429" stroke="rgb(70,30,0)" stroke-width="1" />
<line x1="543" y1="429" x2="547" y2="425" stroke="rgb(70,30,0)" stroke-width="1" />
<line x1="547" y1="425" x2="558" y2="425" stroke="rgb(70,30,0)" stroke-width="1" />
<line x1="558" y1="425" x2="562" y2="429" stroke="rgb(70,30,0)" stroke-width="1" />
<line x1="562" y1="429" x2="562" y2="443" stroke="rgb(70,30,0)" stroke-width="1" />
<line x1="562" y1="443" x2="559" y2="450" stroke="rgb(70,30,0)" stroke-width="1" />
<line x1="570" y1="451" x2="570" y2="439" stroke="rgb(70,30,0)" stroke-width="1" />
<line x1="569" y1="430" x2="573" y2="425" stroke="rgb(70,30,0)" stroke-width="1" />
<line x1="569" y1="430" x2="570" y2="439" stroke="rgb(70,30,0)" stroke-width="1" />
<line x1="573" y1="425" x2="584" y2="425" stroke="rgb(70,30,0)" stroke-width="1" />
<line x1="584" y1="425" x2="587" y2="430" stroke="rgb(70,30,0)" stroke-width="1" />
<line x1="587" y1="430" x2="587" y2="437" stroke="rgb(70,30,0)" stroke-width="1" />
<line x1="587" y1="437" x2="579" y2="439" stroke="rgb(70,30,0)" stroke-width="1" />
<line x1="579" y1="439" x2="570" y2="439" stroke="rgb(70,30,0)" stroke-width="1" />
<line x1="598" y1="451" x2="609" y2="451" stroke="rgb(70,30,0)" stroke-width="1" />
<line x1="609" y1="451" x2="612" y2="444" stroke="rgb(70,30,0)" stroke-width="1" />
<line x1="598" y1="451" x2="594" y2="444" stroke="rgb(70,30,0)" stroke-width="1" />
<line x1="594" y1="444" x2="594" y2="433" stroke="rgb(70,30,0)" stroke-width="1" />
<line x1="594" y1="433" x2="598" y2="425" stroke="rgb(70,30,0)" stroke-width="1" />
<line x1="598" y1="425" x2="609" y2="425" stroke="rgb(70,30,0)" stroke-width="1" />
<line x1="609" y1="425" x2="613" y2="433" stroke="rgb(70,30,0)" stroke-width="1" />
<line x1="613" y1="433" x2="612" y2="444" stroke="rgb(70,30,0)" stroke-width="1" />
<line x1="613" y1="433" x2="594" y2="444" stroke="rgb(70,30,0)" stroke-width="1" />
<line x1="685" y1="459" x2="685" y2="447" stroke="rgb(70,30,0)" stroke-width="1" />
<line x1="684" y1="438" x2="690" y2="434" stroke="rgb(70,30,0)" stroke-width="1" />
<line x1="684" y1="438" x2="685" y2="447" stroke="rgb(70,30,0)" stroke-width="1" />
<line x1="690" y1="434" x2="702" y2="434" stroke="rgb(70,30,0)" stroke-width="1" />
<line x1="685" y1="447" x2="696" y2="447" stroke="rgb(70,30,0)" stroke-width="1" />
<line x1="710" y1="434" x2="709" y2="455" stroke="rgb(70,30,0)" stroke-width="1" />
<line x1="709" y1="455" x2="713" y2="459" stroke="rgb(70,30,0)" stroke-width="1" />
<line x1="713" y1="459" x2="727" y2="459" stroke="rgb(70,30,0)" stroke-width="1" />
<line x1="740" y1="459" x2="735" y2="454" stroke="rgb(70,30,0)" stroke-width="1" />
<line x1="740" y1="459" x2="750" y2="458" stroke="rgb(70,30,0)" stroke-width="1" />
<line x1="735" y1="454" x2="735" y2="438" stroke="rgb(70,30,0)" stroke-width="1" />
<line x1="735" y1="438" x2="739" y2="434" stroke="rgb(70,30,0)" stroke-width="1" />
<line x1="739" y1="434" x2="749" y2="434" stroke="rgb(70,30,0)" stroke-width="1" />
<line x1="749" y1="434" x2="753" y2="438" stroke="rgb(70,30,0)" stroke-width="1" />
<line x1="753" y1="438" x2="753" y2="452" stroke="rgb(70,30,0)" stroke-width="1" />
<line x1="753" y1="452" x2="750" y2="458" stroke="rgb(70,30,0)" stroke-width="1" />
<line x1="761" y1="459" x2="761" y2="448" stroke="rgb(70,30,0)" stroke-width="1" />
<line x1="760" y1="439" x2="764" y2="434" stroke="rgb(70,30,0)" stroke-width="1" />
<line x1="760" y1="439" x2="761" y2="448" stroke="rgb(70,30,0)" stroke-width="1" />
<line x1="764" y1="434" x2="775" y2="434" stroke="rgb(70,30,0)" stroke-width="1" />
<line x1="775" y1="434" x2="778" y2="439" stroke="rgb(70,30,0)" stroke-width="1" />
<line x1="778" y1="439" x2="778" y2="445" stroke="rgb(70,30,0)" stroke-width="1" />
<line x1="778" y1="445" x2="770" y2="448" stroke="rgb(70,30,0)" stroke-width="1" />
<line x1="770" y1="448" x2="761" y2="448" stroke="rgb(70,30,0)" stroke-width="1" />
<line x1="786" y1="440" x2="795" y2="434" stroke="rgb(70,30,0)" stroke-width="1" />
<line x1="795" y1="434" x2="796" y2="459" stroke="rgb(70,30,0)" stroke-width="1" />
<line x1="796" y1="459" x2="786" y2="459" stroke="rgb(70,30,0)" stroke-width="1" />
<line x1="786" y1="459" x2="804" y2="459" stroke="rgb(70,30,0)" stroke-width="1" />
<line x1="1" y1="417" x2="6" y2="417" stroke="rgb(70,30,0)" stroke-width="1" />
<line x1="13" y1="417" x2="18" y2="421" stroke="rgb(70,30,0)" stroke-width="1" />
<line x1="13" y1="417" x2="6" y2="417" stroke="rgb(70,30,0)" stroke-width="1" />
<line x1="18" y1="421" x2="17" y2="438" stroke="rgb(70,30,0)" stroke-width="1" />
<line x1="17" y1="438" x2="11" y2="442" stroke="rgb(70,30,0)" stroke-width="1" />
<line x1="11" y1="442" x2="5" y2="442" stroke="rgb(70,30,0)" stroke-width="1" />
<line x1="0" y1="442" x2="5" y2="442" stroke="rgb(70,30,0)" stroke-width="1" />
<line x1="6" y1="417" x2="5" y2="442" stroke="rgb(70,30,0)" stroke-width="1" />
<line x1="25" y1="418" x2="33" y2="418" stroke="rgb(70,30,0)" stroke-width="1" />
<line x1="40" y1="417" x2="33" y2="418" stroke="rgb(70,30,0)" stroke-width="1" />
<line x1="25" y1="442" x2="33" y2="442" stroke="rgb(70,30,0)" stroke-width="1" />
<line x1="43" y1="441" x2="33" y2="442" stroke="rgb(70,30,0)" stroke-width="1" />
<line x1="33" y1="442" x2="33" y2="418" stroke="rgb(70,30,0)" stroke-width="1" />
<line x1="50" y1="442" x2="50" y2="417" stroke="rgb(70,30,0)" stroke-width="1" />
<line x1="50" y1="417" x2="68" y2="441" stroke="rgb(70,30,0)" stroke-width="1" />
<line x1="68" y1="441" x2="68" y2="417" stroke="rgb(70,30,0)" stroke-width="1" />
<line x1="101" y1="442" x2="101" y2="418" stroke="rgb(70,30,0)" stroke-width="1" />
<line x1="101" y1="418" x2="110" y2="424" stroke="rgb(70,30,0)" stroke-width="1" />
<line x1="110" y1="424" x2="119" y2="417" stroke="rgb(70,30,0)" stroke-width="1" />
<line x1="119" y1="417" x2="119" y2="441" stroke="rgb(70,30,0)" stroke-width="1" />
<line x1="131" y1="442" x2="139" y2="442" stroke="rgb(70,30,0)" stroke-width="1" />
<line x1="139" y1="442" x2="144" y2="436" stroke="rgb(70,30,0)" stroke-width="1" />
<line x1="131" y1="442" x2="127" y2="435" stroke="rgb(70,30,0)" stroke-width="1" />
<line x1="127" y1="435" x2="127" y2="426" stroke="rgb(70,30,0)" stroke-width="1" />
<line x1="127" y1="426" x2="130" y2="417" stroke="rgb(70,30,0)" stroke-width="1" />
<line x1="143" y1="418" x2="145" y2="427" stroke="rgb(70,30,0)" stroke-width="1" />
<line x1="145" y1="427" x2="144" y2="436" stroke="rgb(70,30,0)" stroke-width="1" />
<line x1="170" y1="422" x2="167" y2="417" stroke="rgb(70,30,0)" stroke-width="1" />
<line x1="167" y1="417" x2="155" y2="417" stroke="rgb(70,30,0)" stroke-width="1" />
<line x1="155" y1="417" x2="152" y2="422" stroke="rgb(70,30,0)" stroke-width="1" />
<line x1="152" y1="422" x2="153" y2="427" stroke="rgb(70,30,0)" stroke-width="1" />
<line x1="166" y1="431" x2="169" y2="433" stroke="rgb(70,30,0)" stroke-width="1" />
<line x1="166" y1="431" x2="153" y2="427" stroke="rgb(70,30,0)" stroke-width="1" />
<line x1="169" y1="433" x2="169" y2="440" stroke="rgb(70,30,0)" stroke-width="1" />
<line x1="169" y1="440" x2="165" y2="442" stroke="rgb(70,30,0)" stroke-width="1" />
<line x1="165" y1="442" x2="152" y2="440" stroke="rgb(70,30,0)" stroke-width="1" />
<line x1="178" y1="421" x2="180" y2="417" stroke="rgb(70,30,0)" stroke-width="1" />
<line x1="180" y1="417" x2="187" y2="417" stroke="rgb(70,30,0)" stroke-width="1" />
<line x1="187" y1="417" x2="194" y2="417" stroke="rgb(70,30,0)" stroke-width="1" />
<line x1="187" y1="417" x2="187" y2="442" stroke="rgb(70,30,0)" stroke-width="1" />
<line x1="194" y1="417" x2="196" y2="421" stroke="rgb(70,30,0)" stroke-width="1" />
<line x1="243" y1="417" x2="233" y2="417" stroke="rgb(70,30,0)" stroke-width="1" />
<line x1="233" y1="417" x2="224" y2="421" stroke="rgb(70,30,0)" stroke-width="1" />
<line x1="224" y1="421" x2="224" y2="437" stroke="rgb(70,30,0)" stroke-width="1" />
<line x1="224" y1="437" x2="228" y2="442" stroke="rgb(70,30,0)" stroke-width="1" />
<line x1="228" y1="442" x2="241" y2="442" stroke="rgb(70,30,0)" stroke-width="1" />
<line x1="255" y1="442" x2="250" y2="437" stroke="rgb(70,30,0)" stroke-width="1" />
<line x1="255" y1="442" x2="265" y2="441" stroke="rgb(70,30,0)" stroke-width="1" />
<line x1="250" y1="437" x2="250" y2="421" stroke="rgb(70,30,0)" stroke-width="1" />
<line x1="250" y1="421" x2="254" y2="417" stroke="rgb(70,30,0)" stroke-width="1" />
<line x1="254" y1="417" x2="264" y2="417" stroke="rgb(70,30,0)" stroke-width="1" />
<line x1="264" y1="417" x2="268" y2="421" stroke="rgb(70,30,0)" stroke-width="1" />
<line x1="268" y1="421" x2="268" y2="435" stroke="rgb(70,30,0)" stroke-width="1" />
<line x1="268" y1="435" x2="265" y2="441" stroke="rgb(70,30,0)" stroke-width="1" />
<line x1="275" y1="442" x2="275" y2="418" stroke="rgb(70,30,0)" stroke-width="1" />
<line x1="275" y1="418" x2="285" y2="424" stroke="rgb(70,30,0)" stroke-width="1" />
<line x1="285" y1="424" x2="294" y2="417" stroke="rgb(70,30,0)" stroke-width="1" />
<line x1="294" y1="417" x2="294" y2="441" stroke="rgb(70,30,0)" stroke-width="1" />
<line x1="319" y1="421" x2="314" y2="418" stroke="rgb(70,30,0)" stroke-width="1" />
<line x1="314" y1="418" x2="306" y2="417" stroke="rgb(70,30,0)" stroke-width="1" />
<line x1="301" y1="421" x2="302" y2="430" stroke="rgb(70,30,0)" stroke-width="1" />
<line x1="301" y1="421" x2="306" y2="417" stroke="rgb(70,30,0)" stroke-width="1" />
<line x1="302" y1="430" x2="310" y2="430" stroke="rgb(70,30,0)" stroke-width="1" />
<line x1="302" y1="430" x2="301" y2="440" stroke="rgb(70,30,0)" stroke-width="1" />
<line x1="301" y1="440" x2="307" y2="442" stroke="rgb(70,30,0)" stroke-width="1" />
<line x1="307" y1="442" x2="317" y2="442" stroke="rgb(70,30,0)" stroke-width="1" />
<line x1="317" y1="442" x2="319" y2="437" stroke="rgb(70,30,0)" stroke-width="1" />
<line x1="18" y1="502" x2="18" y2="489" stroke="rgb(70,30,0)" stroke-width="1" />
<line x1="17" y1="480" x2="23" y2="476" stroke="rgb(70,30,0)" stroke-width="1" />
<line x1="17" y1="480" x2="18" y2="489" stroke="rgb(70,30,0)" stroke-width="1" />
<line x1="23" y1="476" x2="34" y2="476" stroke="rgb(70,30,0)" stroke-width="1" />
<line x1="18" y1="489" x2="28" y2="489" stroke="rgb(70,30,0)" stroke-width="1" />
<line x1="43" y1="502" x2="43" y2="490" stroke="rgb(70,30,0)" stroke-width="1" />
<line x1="42" y1="480" x2="46" y2="476" stroke="rgb(70,30,0)" stroke-width="1" />
<line x1="42" y1="480" x2="43" y2="490" stroke="rgb(70,30,0)" stroke-width="1" />
<line x1="46" y1="476" x2="57" y2="476" stroke="rgb(70,30,0)" stroke-width="1" />
<line x1="57" y1="476" x2="60" y2="481" stroke="rgb(70,30,0)" stroke-width="1" />
<line x1="60" y1="481" x2="60" y2="488" stroke="rgb(70,30,0)" stroke-width="1" />
<line x1="60" y1="488" x2="54" y2="492" stroke="rgb(70,30,0)" stroke-width="1" />
<line x1="54" y1="492" x2="43" y2="490" stroke="rgb(70,30,0)" stroke-width="1" />
<line x1="43" y1="490" x2="54" y2="502" stroke="rgb(70,30,0)" stroke-width="1" />
<line x1="54" y1="502" x2="58" y2="501" stroke="rgb(70,30,0)" stroke-width="1" />
<line x1="72" y1="502" x2="67" y2="497" stroke="rgb(70,30,0)" stroke-width="1" />
<line x1="72" y1="502" x2="82" y2="501" stroke="rgb(70,30,0)" stroke-width="1" />
<line x1="67" y1="497" x2="67" y2="480" stroke="rgb(70,30,0)" stroke-width="1" />
<line x1="67" y1="480" x2="71" y2="476" stroke="rgb(70,30,0)" stroke-width="1" />
<line x1="71" y1="476" x2="81" y2="476" stroke="rgb(70,30,0)" stroke-width="1" />
<line x1="81" y1="476" x2="85" y2="480" stroke="rgb(70,30,0)" stroke-width="1" />
<line x1="85" y1="480" x2="85" y2="494" stroke="rgb(70,30,0)" stroke-width="1" />
<line x1="85" y1="494" x2="82" y2="501" stroke="rgb(70,30,0)" stroke-width="1" />
<line x1="93" y1="502" x2="93" y2="478" stroke="rgb(70,30,0)" stroke-width="1" />
<line x1="93" y1="478" x2="102" y2="484" stroke="rgb(70,30,0)" stroke-width="1" />
<line x1="102" y1="484" x2="111" y2="476" stroke="rgb(70,30,0)" stroke-width="1" />
<line x1="111" y1="476" x2="111" y2="501" stroke="rgb(70,30,0)" stroke-width="1" />
<line x1="136" y1="502" x2="136" y2="489" stroke="rgb(70,30,0)" stroke-width="1" />
<line x1="135" y1="480" x2="141" y2="476" stroke="rgb(70,30,0)" stroke-width="1" />
<line x1="135" y1="480" x2="136" y2="489" stroke="rgb(70,30,0)" stroke-width="1" />
<line x1="141" y1="476" x2="153" y2="476" stroke="rgb(70,30,0)" stroke-width="1" />
<line x1="136" y1="489" x2="147" y2="489" stroke="rgb(70,30,0)" stroke-width="1" />
<line x1="162" y1="476" x2="161" y2="498" stroke="rgb(70,30,0)" stroke-width="1" />
<line x1="161" y1="498" x2="165" y2="502" stroke="rgb(70,30,0)" stroke-width="1" />
<line x1="165" y1="502" x2="179" y2="502" stroke="rgb(70,30,0)" stroke-width="1" />
<line x1="191" y1="502" x2="186" y2="497" stroke="rgb(70,30,0)" stroke-width="1" />
<line x1="191" y1="502" x2="201" y2="501" stroke="rgb(70,30,0)" stroke-width="1" />
<line x1="186" y1="497" x2="186" y2="480" stroke="rgb(70,30,0)" stroke-width="1" />
<line x1="186" y1="480" x2="190" y2="476" stroke="rgb(70,30,0)" stroke-width="1" />
<line x1="190" y1="476" x2="200" y2="476" stroke="rgb(70,30,0)" stroke-width="1" />
<line x1="200" y1="476" x2="204" y2="480" stroke="rgb(70,30,0)" stroke-width="1" />
<line x1="204" y1="480" x2="204" y2="494" stroke="rgb(70,30,0)" stroke-width="1" />
<line x1="204" y1="494" x2="201" y2="501" stroke="rgb(70,30,0)" stroke-width="1" />
<line x1="213" y1="502" x2="213" y2="490" stroke="rgb(70,30,0)" stroke-width="1" />
<line x1="212" y1="481" x2="216" y2="476" stroke="rgb(70,30,0)" stroke-width="1" />
<line x1="212" y1="481" x2="213" y2="490" stroke="rgb(70,30,0)" stroke-width="1" />
<line x1="216" y1="476" x2="227" y2="476" stroke="rgb(70,30,0)" stroke-width="1" />
<line x1="227" y1="476" x2="230" y2="481" stroke="rgb(70,30,0)" stroke-width="1" />
<line x1="230" y1="481" x2="230" y2="488" stroke="rgb(70,30,0)" stroke-width="1" />
<line x1="230" y1="488" x2="222" y2="490" stroke="rgb(70,30,0)" stroke-width="1" />
<line x1="222" y1="490" x2="213" y2="490" stroke="rgb(70,30,0)" stroke-width="1" />
<line x1="8" y1="566" x2="16" y2="552" stroke="rgb(70,30,0)" stroke-width="1" />
<line x1="21" y1="540" x2="16" y2="552" stroke="rgb(70,30,0)" stroke-width="1" />
<line x1="21" y1="540" x2="23" y2="552" stroke="rgb(70,30,0)" stroke-width="1" />
<line x1="26" y1="566" x2="23" y2="552" stroke="rgb(70,30,0)" stroke-width="1" />
<line x1="16" y1="552" x2="23" y2="552" stroke="rgb(70,30,0)" stroke-width="1" />
<line x1="33" y1="566" x2="33" y2="540" stroke="rgb(70,30,0)" stroke-width="1" />
<line x1="33" y1="540" x2="51" y2="564" stroke="rgb(70,30,0)" stroke-width="1" />
<line x1="51" y1="564" x2="51" y2="540" stroke="rgb(70,30,0)" stroke-width="1" />
<line x1="64" y1="566" x2="59" y2="561" stroke="rgb(70,30,0)" stroke-width="1" />
<line x1="64" y1="566" x2="74" y2="564" stroke="rgb(70,30,0)" stroke-width="1" />
<line x1="59" y1="561" x2="59" y2="544" stroke="rgb(70,30,0)" stroke-width="1" />
<line x1="59" y1="544" x2="63" y2="540" stroke="rgb(70,30,0)" stroke-width="1" />
<line x1="63" y1="540" x2="73" y2="540" stroke="rgb(70,30,0)" stroke-width="1" />
<line x1="73" y1="540" x2="77" y2="544" stroke="rgb(70,30,0)" stroke-width="1" />
<line x1="77" y1="544" x2="77" y2="558" stroke="rgb(70,30,0)" stroke-width="1" />
<line x1="77" y1="558" x2="74" y2="564" stroke="rgb(70,30,0)" stroke-width="1" />
<line x1="84" y1="544" x2="86" y2="540" stroke="rgb(70,30,0)" stroke-width="1" />
<line x1="86" y1="540" x2="93" y2="540" stroke="rgb(70,30,0)" stroke-width="1" />
<line x1="93" y1="540" x2="100" y2="540" stroke="rgb(70,30,0)" stroke-width="1" />
<line x1="93" y1="540" x2="93" y2="566" stroke="rgb(70,30,0)" stroke-width="1" />
<line x1="100" y1="540" x2="102" y2="544" stroke="rgb(70,30,0)" stroke-width="1" />
<line x1="110" y1="540" x2="111" y2="552" stroke="rgb(70,30,0)" stroke-width="1" />
<line x1="110" y1="566" x2="111" y2="552" stroke="rgb(70,30,0)" stroke-width="1" />
<line x1="128" y1="540" x2="127" y2="552" stroke="rgb(70,30,0)" stroke-width="1" />
<line x1="127" y1="564" x2="127" y2="552" stroke="rgb(70,30,0)" stroke-width="1" />
<line x1="111" y1="552" x2="127" y2="552" stroke="rgb(70,30,0)" stroke-width="1" />
<line x1="153" y1="544" x2="148" y2="541" stroke="rgb(70,30,0)" stroke-width="1" />
<line x1="148" y1="541" x2="140" y2="540" stroke="rgb(70,30,0)" stroke-width="1" />
<line x1="135" y1="544" x2="136" y2="553" stroke="rgb(70,30,0)" stroke-width="1" />
<line x1="135" y1="544" x2="140" y2="540" stroke="rgb(70,30,0)" stroke-width="1" />
<line x1="136" y1="553" x2="144" y2="553" stroke="rgb(70,30,0)" stroke-width="1" />
<line x1="136" y1="553" x2="135" y2="563" stroke="rgb(70,30,0)" stroke-width="1" />
<line x1="135" y1="563" x2="141" y2="566" stroke="rgb(70,30,0)" stroke-width="1" />
<line x1="141" y1="566" x2="151" y2="566" stroke="rgb(70,30,0)" stroke-width="1" />
<line x1="151" y1="566" x2="153" y2="561" stroke="rgb(70,30,0)" stroke-width="1" />
<line x1="162" y1="566" x2="162" y2="554" stroke="rgb(70,30,0)" stroke-width="1" />
<line x1="161" y1="544" x2="165" y2="540" stroke="rgb(70,30,0)" stroke-width="1" />
<line x1="161" y1="544" x2="162" y2="554" stroke="rgb(70,30,0)" stroke-width="1" />
<line x1="165" y1="540" x2="176" y2="540" stroke="rgb(70,30,0)" stroke-width="1" />
<line x1="176" y1="540" x2="179" y2="545" stroke="rgb(70,30,0)" stroke-width="1" />
<line x1="179" y1="545" x2="179" y2="552" stroke="rgb(70,30,0)" stroke-width="1" />
<line x1="179" y1="552" x2="173" y2="555" stroke="rgb(70,30,0)" stroke-width="1" />
<line x1="173" y1="555" x2="162" y2="554" stroke="rgb(70,30,0)" stroke-width="1" />
<line x1="162" y1="554" x2="173" y2="566" stroke="rgb(70,30,0)" stroke-width="1" />
<line x1="173" y1="566" x2="177" y2="564" stroke="rgb(70,30,0)" stroke-width="1" />
<line x1="200" y1="540" x2="205" y2="540" stroke="rgb(70,30,0)" stroke-width="1" />
<line x1="212" y1="540" x2="217" y2="544" stroke="rgb(70,30,0)" stroke-width="1" />
<line x1="212" y1="540" x2="205" y2="540" stroke="rgb(70,30,0)" stroke-width="1" />
<line x1="217" y1="544" x2="216" y2="562" stroke="rgb(70,30,0)" stroke-width="1" />
<line x1="216" y1="562" x2="210" y2="566" stroke="rgb(70,30,0)" stroke-width="1" />
<line x1="210" y1="566" x2="204" y2="566" stroke="rgb(70,30,0)" stroke-width="1" />
<line x1="199" y1="566" x2="204" y2="566" stroke="rgb(70,30,0)" stroke-width="1" />
<line x1="205" y1="540" x2="204" y2="566" stroke="rgb(70,30,0)" stroke-width="1" />
<line x1="229" y1="566" x2="224" y2="561" stroke="rgb(70,30,0)" stroke-width="1" />
<line x1="229" y1="566" x2="240" y2="564" stroke="rgb(70,30,0)" stroke-width="1" />
<line x1="224" y1="561" x2="224" y2="544" stroke="rgb(70,30,0)" stroke-width="1" />
<line x1="224" y1="544" x2="228" y2="540" stroke="rgb(70,30,0)" stroke-width="1" />
<line x1="228" y1="540" x2="239" y2="540" stroke="rgb(70,30,0)" stroke-width="1" />
<line x1="239" y1="540" x2="243" y2="544" stroke="rgb(70,30,0)" stroke-width="1" />
<line x1="243" y1="544" x2="243" y2="558" stroke="rgb(70,30,0)" stroke-width="1" />
<line x1="243" y1="558" x2="240" y2="564" stroke="rgb(70,30,0)" stroke-width="1" />
<line x1="250" y1="566" x2="250" y2="541" stroke="rgb(70,30,0)" stroke-width="1" />
<line x1="250" y1="541" x2="259" y2="548" stroke="rgb(70,30,0)" stroke-width="1" />
<line x1="259" y1="548" x2="268" y2="540" stroke="rgb(70,30,0)" stroke-width="1" />
<line x1="268" y1="540" x2="268" y2="564" stroke="rgb(70,30,0)" stroke-width="1" />
<line x1="275" y1="566" x2="283" y2="552" stroke="rgb(70,30,0)" stroke-width="1" />
<line x1="288" y1="540" x2="283" y2="552" stroke="rgb(70,30,0)" stroke-width="1" />
<line x1="288" y1="540" x2="290" y2="552" stroke="rgb(70,30,0)" stroke-width="1" />
<line x1="294" y1="566" x2="290" y2="552" stroke="rgb(70,30,0)" stroke-width="1" />
<line x1="283" y1="552" x2="290" y2="552" stroke="rgb(70,30,0)" stroke-width="1" />
<line x1="301" y1="541" x2="309" y2="541" stroke="rgb(70,30,0)" stroke-width="1" />
<line x1="316" y1="540" x2="309" y2="541" stroke="rgb(70,30,0)" stroke-width="1" />
<line x1="301" y1="566" x2="309" y2="566" stroke="rgb(70,30,0)" stroke-width="1" />
<line x1="319" y1="564" x2="309" y2="566" stroke="rgb(70,30,0)" stroke-width="1" />
<line x1="309" y1="566" x2="309" y2="541" stroke="rgb(70,30,0)" stroke-width="1" />
<line x1="326" y1="566" x2="326" y2="540" stroke="rgb(70,30,0)" stroke-width="1" />
<line x1="326" y1="540" x2="345" y2="564" stroke="rgb(70,30,0)" stroke-width="1" />
<line x1="345" y1="564" x2="345" y2="540" stroke="rgb(70,30,0)" stroke-width="1" />
<line x1="258" y1="478" x2="267" y2="478" stroke="rgb(70,30,0)" stroke-width="1" />
<line x1="274" y1="476" x2="267" y2="478" stroke="rgb(70,30,0)" stroke-width="1" />
<line x1="258" y1="502" x2="267" y2="502" stroke="rgb(70,30,0)" stroke-width="1" />
<line x1="277" y1="501" x2="267" y2="502" stroke="rgb(70,30,0)" stroke-width="1" />
<line x1="267" y1="502" x2="267" y2="478" stroke="rgb(70,30,0)" stroke-width="1" />
<line x1="284" y1="502" x2="284" y2="476" stroke="rgb(70,30,0)" stroke-width="1" />
<line x1="284" y1="476" x2="302" y2="501" stroke="rgb(70,30,0)" stroke-width="1" />
<line x1="302" y1="501" x2="302" y2="476" stroke="rgb(70,30,0)" stroke-width="1" />
<line x1="599" y1="345" x2="684" y2="345" stroke="rgb(0,30,0)" stroke-width="1" />
<circle cx="684" cy="345" r="8" stroke="rgb(0,30,0)" fill="white" />
<line x1="811" y1="345" x2="917" y2="345" stroke="rgb(0,30,0)" stroke-width="1" />
<circle cx="917" cy="345" r="8" stroke="rgb(0,30,0)" fill="white" />
<line x1="258" y1="345" x2="365" y2="345" stroke="rgb(0,30,0)" stroke-width="1" />
<line x1="535" y1="196" x2="535" y2="281" stroke="rgb(0,30,0)" stroke-width="1" />
<circle cx="535" cy="281" r="8" stroke="rgb(0,30,0)" fill="white" />
<line x1="535" y1="196" x2="747" y2="196" stroke="rgb(0,30,0)" stroke-width="1" />
<line x1="747" y1="196" x2="747" y2="281" stroke="rgb(0,30,0)" stroke-width="1" />
<circle cx="747" cy="281" r="8" stroke="rgb(0,30,0)" fill="white" />
<line x1="195" y1="196" x2="195" y2="281" stroke="rgb(0,30,0)" stroke-width="1" />
<circle cx="195" cy="281" r="8" stroke="rgb(0,30,0)" fill="white" />
<line x1="46" y1="345" x2="131" y2="345" stroke="rgb(0,30,0)" stroke-width="1" />
<circle cx="131" cy="345" r="8" stroke="rgb(0,30,0)" fill="white" />
<line x1="471" y1="345" x2="471" y2="345" stroke="rgb(0,30,0)" stroke-width="1" />
<circle cx="471" cy="345" r="8" stroke="rgb(0,30,0)" fill="white" />
<line x1="361" y1="272" x2="367" y2="272" stroke="rgb(0,30,0)" stroke-width="1" />
<line x1="374" y1="272" x2="379" y2="276" stroke="rgb(0,30,0)" stroke-width="1" />
<line x1="374" y1="272" x2="367" y2="272" stroke="rgb(0,30,0)" stroke-width="1" />
<line x1="379" y1="276" x2="378" y2="294" stroke="rgb(0,30,0)" stroke-width="1" />
<line x1="378" y1="294" x2="372" y2="298" stroke="rgb(0,30,0)" stroke-width="1" />
<line x1="372" y1="298" x2="366" y2="298" stroke="rgb(0,30,0)" stroke-width="1" />
<line x1="360" y1="298" x2="366" y2="298" stroke="rgb(0,30,0)" stroke-width="1" />
<line x1="367" y1="272" x2="366" y2="298" stroke="rgb(0,30,0)" stroke-width="1" />
<line x1="386" y1="274" x2="394" y2="274" stroke="rgb(0,30,0)" stroke-width="1" />
<line x1="401" y1="272" x2="394" y2="274" stroke="rgb(0,30,0)" stroke-width="1" />
<line x1="386" y1="298" x2="394" y2="298" stroke="rgb(0,30,0)" stroke-width="1" />
<line x1="404" y1="296" x2="394" y2="298" stroke="rgb(0,30,0)" stroke-width="1" />
<line x1="394" y1="298" x2="394" y2="274" stroke="rgb(0,30,0)" stroke-width="1" />
<line x1="411" y1="298" x2="411" y2="272" stroke="rgb(0,30,0)" stroke-width="1" />
<line x1="411" y1="272" x2="430" y2="296" stroke="rgb(0,30,0)" stroke-width="1" />
<line x1="430" y1="296" x2="430" y2="272" stroke="rgb(0,30,0)" stroke-width="1" />
<line x1="1054" y1="340" x2="1060" y2="340" stroke="rgb(0,30,0)" stroke-width="1" />
<line x1="1067" y1="340" x2="1072" y2="344" stroke="rgb(0,30,0)" stroke-width="1" />
<line x1="1067" y1="340" x2="1060" y2="340" stroke="rgb(0,30,0)" stroke-width="1" />
<line x1="1072" y1="344" x2="1071" y2="362" stroke="rgb(0,30,0)" stroke-width="1" />
<line x1="1071" y1="362" x2="1065" y2="366" stroke="rgb(0,30,0)" stroke-width="1" />
<line x1="1065" y1="366" x2="1059" y2="366" stroke="rgb(0,30,0)" stroke-width="1" />
<line x1="1053" y1="366" x2="1059" y2="366" stroke="rgb(0,30,0)" stroke-width="1" />
<line x1="1060" y1="340" x2="1059" y2="366" stroke="rgb(0,30,0)" stroke-width="1" />
<line x1="1084" y1="366" x2="1079" y2="361" stroke="rgb(0,30,0)" stroke-width="1" />
<line x1="1084" y1="366" x2="1094" y2="365" stroke="rgb(0,30,0)" stroke-width="1" />
<line x1="1079" y1="361" x2="1079" y2="344" stroke="rgb(0,30,0)" stroke-width="1" />
<line x1="1079" y1="344" x2="1083" y2="340" stroke="rgb(0,30,0)" stroke-width="1" />
<line x1="1083" y1="340" x2="1093" y2="340" stroke="rgb(0,30,0)" stroke-width="1" />
<line x1="1093" y1="340" x2="1097" y2="344" stroke="rgb(0,30,0)" stroke-width="1" />
<line x1="1097" y1="344" x2="1097" y2="358" stroke="rgb(0,30,0)" stroke-width="1" />
<line x1="1097" y1="358" x2="1094" y2="365" stroke="rgb(0,30,0)" stroke-width="1" />
<line x1="1109" y1="366" x2="1117" y2="366" stroke="rgb(0,30,0)" stroke-width="1" />
<line x1="1117" y1="366" x2="1122" y2="359" stroke="rgb(0,30,0)" stroke-width="1" />
<line x1="1109" y1="366" x2="1104" y2="358" stroke="rgb(0,30,0)" stroke-width="1" />
<line x1="1104" y1="358" x2="1104" y2="349" stroke="rgb(0,30,0)" stroke-width="1" />
<line x1="1104" y1="349" x2="1108" y2="340" stroke="rgb(0,30,0)" stroke-width="1" />
<line x1="1121" y1="342" x2="1123" y2="350" stroke="rgb(0,30,0)" stroke-width="1" />
<line x1="1123" y1="350" x2="1122" y2="359" stroke="rgb(0,30,0)" stroke-width="1" />
<line x1="1130" y1="344" x2="1132" y2="340" stroke="rgb(0,30,0)" stroke-width="1" />
<line x1="1132" y1="340" x2="1139" y2="340" stroke="rgb(0,30,0)" stroke-width="1" />
<line x1="1139" y1="340" x2="1146" y2="340" stroke="rgb(0,30,0)" stroke-width="1" />
<line x1="1139" y1="340" x2="1139" y2="366" stroke="rgb(0,30,0)" stroke-width="1" />
<line x1="1146" y1="340" x2="1148" y2="344" stroke="rgb(0,30,0)" stroke-width="1" />
<line x1="519" y1="55" x2="509" y2="55" stroke="rgb(0,30,0)" stroke-width="1" />
<line x1="509" y1="55" x2="501" y2="59" stroke="rgb(0,30,0)" stroke-width="1" />
<line x1="501" y1="59" x2="501" y2="76" stroke="rgb(0,30,0)" stroke-width="1" />
<line x1="501" y1="76" x2="505" y2="81" stroke="rgb(0,30,0)" stroke-width="1" />
<line x1="505" y1="81" x2="517" y2="81" stroke="rgb(0,30,0)" stroke-width="1" />
<line x1="527" y1="55" x2="526" y2="77" stroke="rgb(0,30,0)" stroke-width="1" />
<line x1="526" y1="77" x2="530" y2="81" stroke="rgb(0,30,0)" stroke-width="1" />
<line x1="530" y1="81" x2="545" y2="81" stroke="rgb(0,30,0)" stroke-width="1" />
<line x1="553" y1="57" x2="554" y2="68" stroke="rgb(0,30,0)" stroke-width="1" />
<line x1="552" y1="81" x2="554" y2="68" stroke="rgb(0,30,0)" stroke-width="1" />
<line x1="570" y1="55" x2="560" y2="66" stroke="rgb(0,30,0)" stroke-width="1" />
<line x1="554" y1="68" x2="560" y2="66" stroke="rgb(0,30,0)" stroke-width="1" />
<line x1="560" y1="66" x2="569" y2="80" stroke="rgb(0,30,0)" stroke-width="1" />
<line x1="203" y1="157" x2="198" y2="162" stroke="rgb(0,30,0)" stroke-width="1" />
<line x1="203" y1="157" x2="202" y2="146" stroke="rgb(0,30,0)" stroke-width="1" />
<line x1="198" y1="162" x2="181" y2="162" stroke="rgb(0,30,0)" stroke-width="1" />
<line x1="181" y1="162" x2="178" y2="158" stroke="rgb(0,30,0)" stroke-width="1" />
<line x1="178" y1="158" x2="178" y2="147" stroke="rgb(0,30,0)" stroke-width="1" />
<line x1="178" y1="147" x2="181" y2="143" stroke="rgb(0,30,0)" stroke-width="1" />
<line x1="181" y1="143" x2="195" y2="143" stroke="rgb(0,30,0)" stroke-width="1" />
<line x1="195" y1="143" x2="202" y2="146" stroke="rgb(0,30,0)" stroke-width="1" />
<line x1="178" y1="135" x2="199" y2="136" stroke="rgb(0,30,0)" stroke-width="1" />
<line x1="199" y1="136" x2="203" y2="132" stroke="rgb(0,30,0)" stroke-width="1" />
<line x1="203" y1="132" x2="203" y2="118" stroke="rgb(0,30,0)" stroke-width="1" />
<line x1="178" y1="110" x2="178" y2="105" stroke="rgb(0,30,0)" stroke-width="1" />
<line x1="178" y1="97" x2="181" y2="92" stroke="rgb(0,30,0)" stroke-width="1" />
<line x1="178" y1="97" x2="178" y2="105" stroke="rgb(0,30,0)" stroke-width="1" />
<line x1="181" y1="92" x2="199" y2="93" stroke="rgb(0,30,0)" stroke-width="1" />
<line x1="199" y1="93" x2="203" y2="99" stroke="rgb(0,30,0)" stroke-width="1" />
<line x1="203" y1="99" x2="203" y2="106" stroke="rgb(0,30,0)" stroke-width="1" />
<line x1="203" y1="111" x2="203" y2="106" stroke="rgb(0,30,0)" stroke-width="1" />
<line x1="178" y1="105" x2="203" y2="106" stroke="rgb(0,30,0)" stroke-width="1" />
<line x1="203" y1="85" x2="203" y2="67" stroke="rgb(0,30,0)" stroke-width="1" />
<line x1="178" y1="41" x2="178" y2="51" stroke="rgb(0,30,0)" stroke-width="1" />
<line x1="178" y1="51" x2="181" y2="60" stroke="rgb(0,30,0)" stroke-width="1" />
<line x1="181" y1="60" x2="198" y2="60" stroke="rgb(0,30,0)" stroke-width="1" />
<line x1="198" y1="60" x2="203" y2="56" stroke="rgb(0,30,0)" stroke-width="1" />
<line x1="203" y1="56" x2="203" y2="43" stroke="rgb(0,30,0)" stroke-width="1" />
<line x1="178" y1="33" x2="199" y2="34" stroke="rgb(0,30,0)" stroke-width="1" />
<line x1="199" y1="34" x2="203" y2="30" stroke="rgb(0,30,0)" stroke-width="1" />
<line x1="203" y1="30" x2="203" y2="16" stroke="rgb(0,30,0)" stroke-width="1" />
<line x1="179" y1="8" x2="190" y2="7" stroke="rgb(0,30,0)" stroke-width="1" />
<line x1="203" y1="9" x2="190" y2="7" stroke="rgb(0,30,0)" stroke-width="1" />
<line x1="178" y1="-9" x2="188" y2="0" stroke="rgb(0,30,0)" stroke-width="1" />
<line x1="190" y1="7" x2="188" y2="0" stroke="rgb(0,30,0)" stroke-width="1" />
<line x1="188" y1="0" x2="202" y2="-8" stroke="rgb(0,30,0)" stroke-width="1" />
</svg>
